<?xml version="1.0" encoding="utf-8"?>
<!-- Generator: Adobe Illustrator 15.1.0, SVG Export Plug-In . SVG Version: 6.00 Build 0)  -->
<!DOCTYPE svg PUBLIC "-//W3C//DTD SVG 1.1//EN" "http://www.w3.org/Graphics/SVG/1.1/DTD/svg11.dtd">
<svg version="1.1" id="Layer_1" xmlns="http://www.w3.org/2000/svg" xmlns:xlink="http://www.w3.org/1999/xlink" x="0px" y="0px"
	 width="97.537px" height="100px" viewBox="0 0 97.537 100" enable-background="new 0 0 97.537 100" xml:space="preserve">
<g id="g3763" transform="matrix(0.02870387,0,0,0.02870387,-83.894895,102.76536)">
	<g id="g4040" transform="matrix(-1,0,0,1,1010.0388,-3547.0452)">
		<path id="path5137" d="M-3477.334-9.893c-81.942-47.58-186.984-19.75-234.546,62.175c-20.991,36.165-28.034,78.726-19.903,119.706
			l229.818,1126.752l-78.88,13.422l-600.128-1081.009l-1.701-3.232c-46.542-82.554-151.091-111.796-233.696-65.322
			c-80.563,45.385-110.673,146.447-68.078,228.542l574.05,1089.328l-46.066,55.762l-757.904-783.335
			c-66.104-67.925-174.736-69.439-242.609-3.402c-65.9,64.08-69.609,168.68-8.404,237.251l786.687,877.338l-42.766,86.109
			l-874.123-232.59c-91.621-24.053-185.385,30.705-209.506,122.394c-22.795,86.79,25.21,176.607,110.128,205.798l939.955,319.533
			l593.001,667.168l39.023,271.12c12.146,84.51,84.629,147.212,170.007,147.11l703.521-0.918
			c85.395-0.136,157.708-63.009,169.633-147.519l139.353-986.225l194.843-458.206c2.756-6.532,5.12-13.2,7.06-20.005
			l114.262-400.012l190.726-349.727c45.249-83.251,14.476-187.426-68.775-232.675c-78.573-42.714-176.777-17.912-225.65,57.038
			l-213.113,327.987c-3.725,5.716-7.076,11.652-10.104,17.776l-195.302,396.95l-118.957,46.627l-141.072-81.176l-181.728-261.475
			l-308.782-1262.21C-3408.27,51.942-3437.222,13.412-3477.334-9.893L-3477.334-9.893z"/>
	</g>
</g>
</svg>
