<svg xmlns="http://www.w3.org/2000/svg" xmlns:xlink="http://www.w3.org/1999/xlink" version="1.1" id="Layer_1" x="0px" y="0px" width="100px" height="100px" viewBox="0 0 100 100" enable-background="new 0 0 100 100" xml:space="preserve">
<g>
	<path fill="#000000" d="M94.974,48.869C94.39,36.165,84.377,27.702,83.951,27.349L82.51,29.08c0.097,0.08,9.688,8.21,10.216,19.911   c0.338,7.514-3.082,14.916-10.168,21.998l1.592,1.593C91.708,65.026,95.35,57.046,94.974,48.869z"/>
	<path fill="#000000" d="M72.255,38.621l-1.442,1.729c0.049,0.041,4.848,4.127,5.102,9.954c0.165,3.736-1.557,7.434-5.117,10.991   l1.594,1.595c4.032-4.03,5.976-8.307,5.773-12.709C77.853,43.354,72.483,38.811,72.255,38.621z"/>
	<path fill="#000000" d="M86.936,49.036c-0.43-9.389-7.823-15.64-8.139-15.901l-1.439,1.732c0.069,0.059,6.941,5.865,7.329,14.271   c0.246,5.392-2.215,10.713-7.318,15.82l1.592,1.592C84.53,60.979,87.214,55.087,86.936,49.036z"/>
	<path fill="#000000" d="M7.276,51.015c-0.34-7.515,3.079-14.917,10.163-22.004l-1.593-1.593   c-7.556,7.56-11.196,15.54-10.819,23.721c0.586,12.702,10.597,21.158,11.023,21.513l1.44-1.731   C17.392,70.839,7.805,62.712,7.276,51.015z"/>
	<path fill="#000000" d="M27.611,37.111c-4.032,4.033-5.973,8.31-5.772,12.712c0.313,6.827,5.681,11.368,5.91,11.556l1.442-1.729   c-0.049-0.039-4.845-4.123-5.102-9.949c-0.166-3.737,1.556-7.436,5.115-10.996L27.611,37.111z"/>
	<path fill="#000000" d="M15.314,50.865c-0.247-5.39,2.217-10.712,7.323-15.816l-1.593-1.592c-5.572,5.57-8.257,11.463-7.979,17.514   c0.431,9.383,7.823,15.63,8.137,15.892l1.44-1.731C22.573,65.072,15.701,59.27,15.314,50.865z"/>
	<path fill="#000000" d="M49.515,31.835c-7.053,0-12.172,5.122-12.172,12.177l0.005,5.144h0.064   c0.603,6.647,5.188,15.117,12.103,15.117c6.916,0,11.505-8.47,12.105-15.117h0.067v-5.144   C61.688,36.957,56.568,31.835,49.515,31.835z M49.515,34.088c5.824,0,9.896,4.058,9.92,9.875c-2.283-0.212-4.271-3.584-4.293-3.623   l-0.824-1.456l-1.039,1.31c-2.912,3.673-10.729,4.579-13.683,4.794v-0.976C39.596,38.168,43.675,34.088,49.515,34.088z    M59.432,48.003c-0.131,5.579-4.152,14.018-9.917,14.018c-5.763,0-9.784-8.438-9.915-14.018l-0.004-0.166v-0.589   c2.84-0.188,10.41-1.012,14.408-4.563c1.041,1.384,2.994,3.438,5.433,3.545v1.599L59.432,48.003z"/>
</g>
</svg>