<svg xmlns="http://www.w3.org/2000/svg" xmlns:xlink="http://www.w3.org/1999/xlink" version="1.1" id="Capa_1" x="0px" y="0px" width="100px" height="100px" viewBox="0 0 100 100" enable-background="new 0 0 100 100" xml:space="preserve">
<g id="Capa_33" display="none">
</g>
<g id="Capa_16">
	<g>
		<path d="M35.813,12.813c-0.627-5.057-4.929-8.974-10.156-8.974c-3.386,0-6.379,1.652-8.244,4.186    c-0.943-1.072-2.306-1.761-3.844-1.761c-2.835,0-5.133,2.298-5.133,5.13c0,0.229,0.038,0.447,0.066,0.669    c-0.378-0.073-0.768-0.119-1.168-0.119c-3.419,0-6.189,2.772-6.189,6.19c0,3.42,2.771,6.192,6.189,6.192h25.661    c3.377,0,6.115-2.739,6.115-6.116C39.109,15.853,37.764,13.833,35.813,12.813z M30.858,11.324    c-0.241-0.141-0.461-0.311-0.714-0.424c-0.253-0.113-0.489-0.26-0.755-0.34c-0.514-0.191-1.043-0.344-1.583-0.422    c-0.271-0.039-0.54-0.085-0.813-0.079c-0.287-0.009-0.522-0.024-0.809,0.014c-0.276,0.033-0.572,0.032-0.822,0.104    c-0.259,0.067-0.518,0.09-0.771,0.191c-0.515,0.162-1.01,0.373-1.482,0.628c-0.466,0.267-0.899,0.585-1.302,0.94l-0.563,0.573    l-0.495,0.631l-0.229,0.294l-0.316-0.231l-0.606-0.44c-0.206-0.138-0.443-0.225-0.664-0.341c-0.214-0.133-0.473-0.149-0.706-0.232    c-0.234-0.091-0.483-0.114-0.731-0.134l-0.371-0.04c-0.046-0.024-0.243,0.016-0.359,0.019c-0.261,0.033-0.547,0.033-0.791,0.09    l-0.687,0.211c-0.23,0.076-0.443,0.226-0.667,0.332c-0.234,0.099-0.418,0.272-0.614,0.429c-0.198,0.153-0.396,0.311-0.542,0.516    c-0.15,0.202-0.35,0.367-0.463,0.594l-0.375,0.656l-0.25,0.717c-0.108,0.234-0.093,0.497-0.138,0.746l-0.051,0.38    c-0.013,0.072,0.017,0.25,0.023,0.371l0.072,0.804l0.02,0.231l-0.242,0.02l-0.605,0.053l-0.588,0.166    c-0.185,0.083-0.368,0.181-0.554,0.27L9.819,19l-0.417,0.47c-0.105,0.181-0.219,0.36-0.32,0.546    c-0.069,0.2-0.148,0.398-0.216,0.601l-0.104,0.64l0.028-0.654c0.042-0.214,0.1-0.427,0.157-0.642    c0.086-0.203,0.188-0.4,0.285-0.603l0.399-0.54l0.503-0.456c0.193-0.117,0.385-0.242,0.585-0.352    c0.214-0.081,0.431-0.16,0.65-0.228l0.433-0.061l-0.083-0.584c-0.015-0.147-0.048-0.234-0.048-0.432l0.03-0.422    c0.034-0.28,0.007-0.572,0.109-0.841l0.238-0.822l0.394-0.763c0.128-0.257,0.343-0.456,0.513-0.686    c0.167-0.237,0.388-0.422,0.611-0.602c0.22-0.184,0.431-0.382,0.694-0.504c0.257-0.131,0.491-0.297,0.77-0.397l0.853-0.268    c0.28-0.067,0.539-0.069,0.808-0.107c0.153-0.008,0.225-0.043,0.445-0.029l0.433,0.036c0.289,0.019,0.578,0.044,0.853,0.141    c0.274,0.094,0.569,0.132,0.817,0.284c0.256,0.137,0.527,0.246,0.763,0.409l0.384,0.29l0.318-0.392l0.631-0.619    c0.451-0.381,0.931-0.722,1.448-1.005c0.257-0.143,0.534-0.247,0.8-0.371c0.269-0.123,0.56-0.177,0.838-0.267    c0.276-0.093,0.585-0.11,0.875-0.166c0.3-0.062,0.571-0.043,0.855-0.061c0.273-0.022,0.601,0.005,0.875,0.031    c0.29,0.011,0.575,0.073,0.859,0.13c0.569,0.111,1.12,0.303,1.635,0.557c0.269,0.106,0.502,0.281,0.75,0.419    c0.25,0.142,0.464,0.336,0.696,0.5c0.45,0.361,0.83,0.779,1.179,1.22C31.745,12.002,31.314,11.634,30.858,11.324z"/>
		<g>
			<g>
				<g>
					<path d="M77.637,43.158c3.397-2.602,4.039-7.472,1.436-10.869c-2.617-3.405-7.487-4.043-10.883-1.433       c-3.397,2.608-4.039,7.47-1.422,10.874C69.375,45.126,74.238,45.768,77.637,43.158z"/>
					<path d="M88.677,49.634l-14.995,1.679l-8.339-5.622c0.562-4.192-3.323-8.575-5.663-11.994l2.104,7.594       c-0.052-0.044-0.097-0.099-0.149-0.141l-4.184-10.465l5.771-16.859L58.966,12.1l-8.091,17.343       c-0.318,0.786-0.32,1.665-0.006,2.45l3.471,8.688c-0.004,0.003-0.009,0.005-0.013,0.008l-9.995,5.682l8.563-6.404l-3.23-7.492       c-0.044-0.112-0.064-0.228-0.1-0.341c-4.34,1.524-9.409,4.455-14.03,7.474c-5.958,3.89-5.948,9.781-5.185,13.488l-10.406,3.277       L3.5,45.182L0,49.733l6.41,5.527l17.004,6.618l8.827-3.205l-8.745,4.629L5.59,56.333l-2.419,5.206l18.716,10.059       c0.549,0.256,1.139,0.383,1.728,0.383c0.661,0,1.32-0.158,1.919-0.477l16.956-9.093L42.484,62.4       c0.057-0.03,0.118-0.053,0.176-0.084l18.152-10.321c0.379-0.215,0.727-0.466,1.045-0.741l9.259,6.239       c0.546,0.366,1.185,0.56,1.833,0.56c0.193,0,0.386-0.015,0.578-0.05l15.957-3.848L88.677,49.634z"/>
				</g>
			</g>
		</g>
		<path d="M97.438,84.374c0.176-0.908,0.274-1.845,0.274-2.804c0-8.061-6.534-14.594-14.592-14.594    c-4.927,0-9.272,2.448-11.916,6.188c-1.782-1.584-4.122-2.553-6.694-2.553c-5.572,0-10.09,4.518-10.09,10.092    c0,0.779,0.098,1.538,0.266,2.268c-3.594,0.062-6.491,2.981-6.491,6.59c0,3.645,2.956,6.601,6.6,6.601h38.604    c3.646,0,6.602-2.956,6.602-6.601C100,87.443,98.984,85.581,97.438,84.374z M92.902,83.666c-0.101-0.507-0.405-0.923-0.594-1.381    c-0.113-0.221-0.199-0.452-0.334-0.661l-0.438-0.604c-0.294-0.399-0.556-0.82-0.94-1.139c-0.365-0.331-0.666-0.73-1.07-1.008    l-1.203-0.84l-1.324-0.613c-0.43-0.23-0.932-0.266-1.391-0.41c-0.234-0.053-0.463-0.134-0.7-0.166l-0.724-0.042l-0.72-0.056    c-0.106-0.005-0.271-0.029-0.329-0.021l-0.379,0.028l-0.76,0.06l-0.688,0.137c-0.455,0.064-0.908,0.248-1.361,0.39    c-0.443,0.173-0.879,0.373-1.301,0.588c-0.402,0.257-0.832,0.47-1.194,0.783c-0.392,0.274-0.74,0.599-1.074,0.938    c-0.356,0.317-0.616,0.728-0.935,1.08l-0.482,0.537l-0.525-0.494l-0.523-0.488c-0.158-0.188-0.387-0.276-0.583-0.41    c-0.202-0.126-0.397-0.268-0.634-0.322c-0.227-0.072-0.446-0.166-0.676-0.23l-0.709-0.08l-0.178-0.022L71.09,79.21L71,79.219    l-0.406,0.04c-0.275,0.021-0.554,0.044-0.742,0.13c-0.211,0.079-0.429,0.1-0.642,0.213l-0.642,0.332    c-0.193,0.141-0.377,0.299-0.566,0.446c-0.211,0.132-0.327,0.354-0.497,0.528c-0.174,0.173-0.302,0.378-0.409,0.597    c-0.111,0.214-0.265,0.412-0.322,0.65c-0.07,0.231-0.176,0.459-0.229,0.696l-0.097,0.73c-0.042,0.182,0.021,0.52,0.026,0.77    l0.012,0.56l-0.563-0.073L65.3,84.757l-0.313-0.044c-0.033-0.006-0.146-0.015-0.115-0.021l-0.17,0.014    c-0.436,0.056-0.943,0.011-1.318,0.148l-0.595,0.168c-0.203,0.035-0.392,0.149-0.581,0.244l-0.578,0.287    c-0.188,0.104-0.347,0.252-0.525,0.374c-0.168,0.136-0.36,0.246-0.513,0.401l-0.438,0.482c-0.149,0.16-0.307,0.317-0.404,0.517    l-0.346,0.563c-0.239,0.375-0.323,0.821-0.504,1.232c-0.078,0.212-0.086,0.438-0.131,0.658l-0.113,0.672l0.023-0.682    c0.018-0.228-0.004-0.463,0.049-0.688c0.127-0.438,0.183-0.913,0.392-1.328l0.306-0.63c0.088-0.222,0.232-0.403,0.376-0.592    l0.425-0.564c0.149-0.185,0.342-0.325,0.512-0.489c0.181-0.153,0.345-0.332,0.543-0.467l0.617-0.361    c0.209-0.118,0.408-0.254,0.651-0.316l0.704-0.236c0.48-0.182,0.908-0.151,1.365-0.238l0.169-0.021    c0.146-0.007,0.144,0.005,0.223,0.007l0.363,0.024l0.116,0.009c-0.01-0.1-0.022-0.195-0.016-0.324l0.066-0.895    c0.048-0.295,0.15-0.58,0.227-0.871c0.061-0.299,0.228-0.555,0.361-0.825c0.132-0.274,0.283-0.532,0.488-0.759    c0.199-0.225,0.353-0.499,0.601-0.678c0.229-0.193,0.458-0.398,0.699-0.58l0.796-0.447c0.266-0.146,0.598-0.218,0.898-0.32    c0.324-0.119,0.59-0.138,0.856-0.162l0.408-0.043l0.101-0.012c0.047-0.002-0.029-0.002,0.114-0.006l0.06,0.005l0.228,0.022    l0.914,0.101c0.295,0.076,0.584,0.188,0.874,0.283c0.3,0.079,0.559,0.246,0.818,0.405c0.258,0.164,0.543,0.293,0.754,0.52    l0.121,0.111c0.189-0.232,0.385-0.461,0.608-0.661c0.382-0.382,0.781-0.742,1.226-1.052c0.416-0.348,0.901-0.59,1.361-0.868    c0.48-0.24,0.973-0.472,1.48-0.644c0.52-0.148,1.021-0.332,1.578-0.399l0.813-0.128l0.761-0.035l0.379-0.018    c0.195-0.009,0.285,0.021,0.432,0.029l0.8,0.086l0.794,0.1c0.262,0.051,0.512,0.151,0.768,0.226    c0.5,0.187,1.039,0.265,1.498,0.542l1.398,0.753l1.241,0.978c0.413,0.326,0.721,0.767,1.079,1.146    c0.369,0.375,0.607,0.846,0.873,1.295l0.396,0.671c0.117,0.23,0.188,0.488,0.284,0.729c0.15,0.496,0.419,0.959,0.466,1.469    l0.229,1.51L92.902,83.666z"/>
	</g>
</g>
</svg>